<?xml version="1.0" encoding="UTF-8"?>
<svg width="994px" height="380px" viewBox="0 0 994 380" version="1.1" xmlns="http://www.w3.org/2000/svg" xmlns:xlink="http://www.w3.org/1999/xlink">
    <!-- Generator: Sketch 52.3 (67297) - http://www.bohemiancoding.com/sketch -->
    <title>Blocks</title>
    <desc>Created with Sketch.</desc>
    <defs>
        <linearGradient x1="50%" y1="0%" x2="50%" y2="100%" id="linearGradient-1">
            <stop stop-color="#FFFFFF" offset="0%"></stop>
            <stop stop-color="#F1A0A0" offset="100%"></stop>
        </linearGradient>
        <linearGradient x1="50%" y1="0%" x2="50%" y2="98.1462247%" id="linearGradient-2">
            <stop stop-color="#FFFFFF" offset="0%"></stop>
            <stop stop-color="#F1A0A0" offset="100%"></stop>
        </linearGradient>
        <linearGradient x1="50%" y1="0%" x2="50%" y2="100%" id="linearGradient-3">
            <stop stop-color="#FFC3C3" offset="0%"></stop>
            <stop stop-color="#EB5353" offset="100%"></stop>
        </linearGradient>
        <path d="M35.3345238,56 L29.1923882,62.1421356 C28.4113396,62.9231842 27.1450096,62.9231842 26.363961,62.1421356 L20.2218254,56 L5,56 C2.23857625,56 3.38176876e-16,53.7614237 0,51 L0,5 C-3.38176876e-16,2.23857625 2.23857625,1.82708337e-14 5,1.77635684e-14 L113,1.77635684e-14 C115.761424,1.72563031e-14 118,2.23857625 118,5 L118,51 C118,53.7614237 115.761424,56 113,56 L35.3345238,56 Z" id="path-4"></path>
        <filter x="-72.0%" y="-103.6%" width="244.1%" height="371.0%" filterUnits="objectBoundingBox" id="filter-5">
            <feOffset dx="0" dy="20" in="SourceAlpha" result="shadowOffsetOuter1"></feOffset>
            <feGaussianBlur stdDeviation="25" in="shadowOffsetOuter1" result="shadowBlurOuter1"></feGaussianBlur>
            <feColorMatrix values="0 0 0 0 0.198634141   0 0 0 0 0   0 0 0 0 0  0 0 0 0.103006114 0" type="matrix" in="shadowBlurOuter1"></feColorMatrix>
        </filter>
        <path d="M98.5060967,56 L92.7781746,61.7279221 C91.997126,62.5089706 90.7307961,62.5089706 89.9497475,61.7279221 L84.2218254,56 L5,56 C2.23857625,56 3.38176876e-16,53.7614237 0,51 L0,5 C-3.38176876e-16,2.23857625 2.23857625,1.82708337e-14 5,1.77635684e-14 L113,1.77635684e-14 C115.761424,1.72563031e-14 118,2.23857625 118,5 L118,51 C118,53.7614237 115.761424,56 113,56 L98.5060967,56 Z" id="path-6"></path>
        <filter x="-72.0%" y="-104.3%" width="244.1%" height="372.8%" filterUnits="objectBoundingBox" id="filter-7">
            <feOffset dx="0" dy="20" in="SourceAlpha" result="shadowOffsetOuter1"></feOffset>
            <feGaussianBlur stdDeviation="25" in="shadowOffsetOuter1" result="shadowBlurOuter1"></feGaussianBlur>
            <feColorMatrix values="0 0 0 0 0.198634141   0 0 0 0 0   0 0 0 0 0  0 0 0 0.103006114 0" type="matrix" in="shadowBlurOuter1"></feColorMatrix>
        </filter>
        <rect id="path-8" x="0" y="0" width="118" height="46" rx="5"></rect>
        <filter x="-72.0%" y="-141.3%" width="244.1%" height="469.6%" filterUnits="objectBoundingBox" id="filter-9">
            <feOffset dx="0" dy="20" in="SourceAlpha" result="shadowOffsetOuter1"></feOffset>
            <feGaussianBlur stdDeviation="25" in="shadowOffsetOuter1" result="shadowBlurOuter1"></feGaussianBlur>
            <feColorMatrix values="0 0 0 0 0.198634141   0 0 0 0 0   0 0 0 0 0  0 0 0 0.103006114 0" type="matrix" in="shadowBlurOuter1"></feColorMatrix>
        </filter>
        <rect id="path-10" x="0" y="0" width="118" height="46" rx="5"></rect>
        <filter x="-72.0%" y="-141.3%" width="244.1%" height="469.6%" filterUnits="objectBoundingBox" id="filter-11">
            <feOffset dx="0" dy="20" in="SourceAlpha" result="shadowOffsetOuter1"></feOffset>
            <feGaussianBlur stdDeviation="25" in="shadowOffsetOuter1" result="shadowBlurOuter1"></feGaussianBlur>
            <feColorMatrix values="0 0 0 0 0.198634141   0 0 0 0 0   0 0 0 0 0  0 0 0 0.103006114 0" type="matrix" in="shadowBlurOuter1"></feColorMatrix>
        </filter>
        <rect id="path-12" x="0" y="0" width="118" height="46" rx="5"></rect>
        <filter x="-72.0%" y="-141.3%" width="244.1%" height="469.6%" filterUnits="objectBoundingBox" id="filter-13">
            <feOffset dx="0" dy="20" in="SourceAlpha" result="shadowOffsetOuter1"></feOffset>
            <feGaussianBlur stdDeviation="25" in="shadowOffsetOuter1" result="shadowBlurOuter1"></feGaussianBlur>
            <feColorMatrix values="0 0 0 0 0.198634141   0 0 0 0 0   0 0 0 0 0  0 0 0 0.103006114 0" type="matrix" in="shadowBlurOuter1"></feColorMatrix>
        </filter>
        <linearGradient x1="100%" y1="8.52967237%" x2="36.0647519%" y2="100%" id="linearGradient-14">
            <stop stop-color="#E16161" offset="0%"></stop>
            <stop stop-color="#B44848" offset="100%"></stop>
        </linearGradient>
        <rect id="path-15" x="1" y="38" width="126" height="90" rx="5"></rect>
        <filter x="-67.5%" y="-72.2%" width="234.9%" height="288.9%" filterUnits="objectBoundingBox" id="filter-16">
            <feOffset dx="0" dy="20" in="SourceAlpha" result="shadowOffsetOuter1"></feOffset>
            <feGaussianBlur stdDeviation="25" in="shadowOffsetOuter1" result="shadowBlurOuter1"></feGaussianBlur>
            <feColorMatrix values="0 0 0 0 0.2   0 0 0 0 0   0 0 0 0 0  0 0 0 0.1 0" type="matrix" in="shadowBlurOuter1"></feColorMatrix>
        </filter>
        <linearGradient x1="90.7831396%" y1="18.5249572%" x2="16.351481%" y2="90.4196769%" id="linearGradient-17">
            <stop stop-color="#FD9292" offset="0%"></stop>
            <stop stop-color="#EB2A2A" offset="100%"></stop>
        </linearGradient>
    </defs>
    <g id="Page-1" stroke="none" stroke-width="1" fill="none" fill-rule="evenodd">
        <g id="Home" transform="translate(-174.000000, -477.000000)">
            <g id="Blocks" transform="translate(224.000000, 477.000000)">
                <g id="crypt" transform="translate(809.000000, 27.000000)">
                    <circle id="Oval" fill="url(#linearGradient-1)" cx="26.5" cy="52.5" r="26.5"></circle>
                    <circle id="Oval-Copy" fill="url(#linearGradient-2)" cx="26.5" cy="39.5" r="26.5"></circle>
                    <g id="DAI">
                        <circle id="Oval-Copy-2" fill="url(#linearGradient-3)" cx="26.5" cy="26.5" r="26.5"></circle>
                        <text id="TRX" font-family="SFUIDisplay-Medium, SF UI Display" font-size="14" font-weight="400" letter-spacing="1.75" fill="#FFFFFF">
                            <tspan x="10.8046875" y="30">TRX</tspan>
                        </text>
                    </g>
                </g>
                <g id="crypt" transform="translate(47.000000, 250.000000)">
                    <ellipse id="Oval-Copy" fill="url(#linearGradient-2)" cx="21.5" cy="33" rx="21.5" ry="22"></ellipse>
                    <g id="DAI">
                        <ellipse id="Oval-Copy-2" fill="url(#linearGradient-3)" cx="21.5" cy="22" rx="21.5" ry="22"></ellipse>
                        <text id="TRX" font-family="SFUIDisplay-Medium, SF UI Display" font-size="11" font-weight="400" letter-spacing="1.375" fill="#FFFFFF">
                            <tspan x="10.1679687" y="25.3962264">TRX</tspan>
                        </text>
                    </g>
                </g>
                <g id="crypt" transform="translate(137.000000, 0.000000)">
                    <ellipse id="Oval-Copy-4" fill="url(#linearGradient-2)" cx="21.5" cy="44" rx="21.5" ry="22"></ellipse>
                    <ellipse id="Oval-Copy" fill="url(#linearGradient-2)" cx="21.5" cy="33" rx="21.5" ry="22"></ellipse>
                    <g id="DAI">
                        <ellipse id="Oval-Copy-2" fill="url(#linearGradient-3)" cx="21.5" cy="22" rx="21.5" ry="22"></ellipse>
                        <text id="TRX" font-family="SFUIDisplay-Medium, SF UI Display" font-size="12" font-weight="400" letter-spacing="1.5" fill="#FFFFFF">
                            <tspan x="9.046875" y="26.3962264">TRX</tspan>
                        </text>
                    </g>
                </g>
                <g id="crypt" transform="translate(698.000000, 193.500000) rotate(-270.000000) translate(-698.000000, -193.500000) translate(673.500000, 151.500000)">
                    <circle id="Oval-Copy-3" fill="url(#linearGradient-1)" cx="24.5" cy="59.5" r="24.5"></circle>
                    <circle id="Oval" fill="url(#linearGradient-1)" cx="24.5" cy="48.5" r="24.5"></circle>
                    <circle id="Oval-Copy" fill="url(#linearGradient-2)" cx="24.5" cy="36.5" r="24.5"></circle>
                    <g id="DAI">
                        <circle id="Oval-Copy-2" fill="url(#linearGradient-3)" cx="24.5" cy="24.5" r="24.5"></circle>
                        <text id="REY" transform="translate(24.500000, 23.827926) rotate(-90.000000) translate(-24.500000, -23.827926) " font-family="SFUIDisplay-Medium, SF UI Display" font-size="14" font-weight="400" letter-spacing="1.75" fill="#FFFFFF">
                            <tspan x="9.21484375" y="28.8279263">REY</tspan>
                        </text>
                    </g>
                </g>
                <g id="crypt" transform="translate(210.500000, 170.000000) rotate(-270.000000) translate(-210.500000, -170.000000) translate(190.500000, 139.500000)">
                    <ellipse id="Oval" fill="url(#linearGradient-1)" cx="20" cy="40.5" rx="19.5" ry="20"></ellipse>
                    <ellipse id="Oval-Copy" fill="url(#linearGradient-2)" cx="20" cy="30.5" rx="19.5" ry="20"></ellipse>
                    <g id="DAI" transform="translate(0.500000, 0.500000)">
                        <ellipse id="Oval-Copy-2" fill="url(#linearGradient-3)" cx="19.5" cy="20" rx="19.5" ry="20"></ellipse>
                        <text id="REY" transform="translate(20.000000, 19.000000) rotate(-90.000000) translate(-20.000000, -19.000000) " font-family="SFUIDisplay-Medium, SF UI Display" font-size="11" font-weight="400" letter-spacing="1.375" fill="#FFFFFF">
                            <tspan x="7.99023438" y="22.5">REY</tspan>
                        </text>
                    </g>
                </g>
                <g id="skelets" transform="translate(242.000000, 55.000000)">
                    <g id="Combined-Shape">
                        <use fill="black" fill-opacity="1" filter="url(#filter-5)" xlink:href="#path-4"></use>
                        <use fill="#FFFFFF" fill-rule="evenodd" xlink:href="#path-4"></use>
                    </g>
                    <g id="Group" transform="translate(10.000000, 13.000000)" fill="#F7E5E5">
                        <circle id="Oval" cx="83" cy="15" r="15"></circle>
                        <rect id="line" x="0" y="0" width="40" height="5" rx="1"></rect>
                        <rect id="line" x="0" y="8" width="56" height="5" rx="1"></rect>
                        <rect id="line" x="0" y="16" width="44" height="5" rx="1"></rect>
                    </g>
                </g>
                <g id="skelets" transform="translate(577.000000, 38.000000)">
                    <g id="Combined-Shape">
                        <use fill="black" fill-opacity="1" filter="url(#filter-7)" xlink:href="#path-6"></use>
                        <use fill="#FFFFFF" fill-rule="evenodd" xlink:href="#path-6"></use>
                    </g>
                    <g id="Group" transform="translate(10.000000, 13.000000)" fill="#F7E5E5">
                        <circle id="Oval" cx="83" cy="15" r="15"></circle>
                        <rect id="line" x="0" y="0" width="40" height="5" rx="1"></rect>
                        <rect id="line" x="0" y="8" width="56" height="5" rx="1"></rect>
                        <rect id="line" x="0" y="16" width="44" height="5" rx="1"></rect>
                        <rect id="line" x="0" y="24" width="40" height="5" rx="1"></rect>
                    </g>
                </g>
                <g id="skelets" transform="translate(776.000000, 218.000000)">
                    <g id="Combined-Shape">
                        <use fill="black" fill-opacity="1" filter="url(#filter-9)" xlink:href="#path-8"></use>
                        <use fill="#FFFFFF" fill-rule="evenodd" xlink:href="#path-8"></use>
                    </g>
                    <g id="Group" transform="translate(10.000000, 8.000000)" fill="#F7E5E5">
                        <circle id="Oval" cx="15" cy="15" r="15"></circle>
                        <rect id="line" x="40" y="9" width="40" height="5" rx="1"></rect>
                        <rect id="line" x="40" y="17" width="56" height="5" rx="1"></rect>
                    </g>
                </g>
                <g id="skelets" transform="translate(327.000000, 264.000000)">
                    <g id="Combined-Shape">
                        <use fill="black" fill-opacity="1" filter="url(#filter-11)" xlink:href="#path-10"></use>
                        <use fill="#FFFFFF" fill-rule="evenodd" xlink:href="#path-10"></use>
                    </g>
                    <g id="Group" transform="translate(10.000000, 8.000000)" fill="#F7E5E5">
                        <circle id="Oval" cx="15" cy="15" r="15"></circle>
                        <rect id="line" x="40" y="9" width="40" height="5" rx="1"></rect>
                        <rect id="line" x="40" y="17" width="56" height="5" rx="1"></rect>
                    </g>
                </g>
                <g id="skelets" transform="translate(0.000000, 87.000000)">
                    <g id="Combined-Shape">
                        <use fill="black" fill-opacity="1" filter="url(#filter-13)" xlink:href="#path-12"></use>
                        <use fill="#FFFFFF" fill-rule="evenodd" xlink:href="#path-12"></use>
                    </g>
                    <g id="Group" transform="translate(10.000000, 8.000000)" fill="#F7E5E5">
                        <circle id="Oval" cx="15" cy="15" r="15"></circle>
                        <rect id="line" x="40" y="9" width="40" height="5" rx="1"></rect>
                        <rect id="line" x="40" y="17" width="56" height="5" rx="1"></rect>
                    </g>
                </g>
                <g id="skelets" transform="translate(411.000000, 42.000000)">
                    <path d="M4.65196346,38.186079 L96.7353397,2.79229367 C99.4915279,1.73290662 102.584663,3.10843579 103.64405,5.86462405 C103.879342,6.47677811 104,7.12699788 104,7.78281398 L104,43 L4.98165782,40.1190794 C4.42960668,40.1030176 3.99510149,39.642471 4.01116332,39.0904199 C4.0228907,38.6873454 4.27556511,38.330754 4.65196346,38.186079 Z" id="Path-2" fill="url(#linearGradient-14)"></path>
                    <g id="Rectangle">
                        <use fill="black" fill-opacity="1" filter="url(#filter-16)" xlink:href="#path-15"></use>
                        <use fill="#FFFFFF" fill-rule="evenodd" xlink:href="#path-15"></use>
                    </g>
                    <rect id="line" fill="#F7E5E5" x="12" y="102" width="62" height="5" rx="1"></rect>
                    <rect id="line" fill="#F7E5E5" x="12" y="110" width="51" height="5" rx="1"></rect>
                    <g id="Logo" transform="translate(12.000000, 50.000000)">
                        <g>
                            <circle id="Oval" fill="url(#linearGradient-17)" cx="20" cy="20" r="20"></circle>
                            <path d="M27.2,26.0413793 C26.8341961,26.4503063 26.4439022,26.745638 26.0291066,26.9273834 C25.6143111,27.1091287 25.1162373,27.2 24.5348703,27.2 C23.7640692,27.2 23.1533164,27.0377298 22.7025937,26.7131846 C22.2518709,26.3886394 21.9579258,25.8304299 21.8207493,25.0385396 L21.4582133,23.0523327 C21.3406334,22.4097331 21.2181563,21.8920912 21.0907781,21.4993915 C20.9633999,21.1066917 20.7805007,20.795133 20.5420749,20.5647059 C20.3036491,20.3342788 19.9884746,20.2190669 19.5965418,20.2190669 L18.2933718,20.2190669 L18.2933718,24.8048682 C18.2933718,25.3046678 18.3292984,25.668153 18.4011527,25.8953347 C18.4730071,26.1225163 18.6101815,26.2782957 18.8126801,26.3626775 C19.0151787,26.4470592 19.3417845,26.4989857 19.7925072,26.5184584 L19.7925072,26.9176471 C19.080496,26.8787016 18.0712841,26.8592292 16.7648415,26.8592292 C15.3342868,26.8592292 14.2793502,26.8787016 13.6,26.9176471 L13.6,26.5184584 C14.0441905,26.4989857 14.3675302,26.4470592 14.5700288,26.3626775 C14.7725274,26.2782957 14.9113349,26.1225163 14.9864553,25.8953347 C15.0615758,25.668153 15.0991354,25.3046678 15.0991354,24.8048682 L15.0991354,14.9127789 C15.0991354,14.4129792 15.0615758,14.049494 14.9864553,13.8223124 C14.9113349,13.5951307 14.7725274,13.4393513 14.5700288,13.3549696 C14.3675302,13.2705878 14.0441905,13.2186614 13.6,13.1991886 L13.6,12.8 C14.2793502,12.8389454 15.2950941,12.8584178 16.6472622,12.8584178 C17.1829037,12.8584178 17.7773262,12.851927 18.4305476,12.8389452 C19.0837689,12.8259634 19.5377509,12.8194726 19.7925072,12.8194726 C21.6345913,12.8194726 23.0226658,13.1196725 23.9567723,13.7200811 C24.8908788,14.3204898 25.3579251,15.1756537 25.3579251,16.2855984 C25.3579251,16.8762707 25.2174846,17.4377255 24.9365994,17.9699797 C24.6557143,18.5022339 24.1788698,18.9647039 23.5060519,19.3574037 C22.8332339,19.7501034 21.9448662,20.0113584 20.8409222,20.1411765 L20.8605187,20.1411765 C21.6705132,20.2125764 22.3351559,20.3488834 22.8544669,20.5501014 C23.3737778,20.7513195 23.780402,21.0320469 24.0743516,21.3922921 C24.3683012,21.7525373 24.5740628,22.2117619 24.6916427,22.7699797 L25.1521614,24.8243408 C25.263209,25.3630859 25.3889522,25.7363073 25.5293948,25.9440162 C25.6698374,26.1517252 25.8674339,26.2555781 26.1221902,26.2555781 C26.2789633,26.2490872 26.4161377,26.2101423 26.5337176,26.1387424 C26.6512974,26.0673424 26.7819397,25.9537533 26.9256484,25.7979716 L27.2,26.0413793 Z M19.1556196,19.8198783 C19.9068241,19.8198783 20.4930815,19.6770805 20.9144092,19.3914807 C21.335737,19.1058809 21.6264161,18.7229233 21.7864553,18.2425963 C21.9464946,17.7622694 22.026513,17.1845876 22.026513,16.5095335 C22.026513,15.4190615 21.8321825,14.594729 21.4435159,14.0365112 C21.0548492,13.4782934 20.419601,13.1991886 19.5377522,13.1991886 C19.1784804,13.1991886 18.9122967,13.246247 18.7391931,13.3403651 C18.5660894,13.4344832 18.4485114,13.5999988 18.3864553,13.8369168 C18.3243993,14.0738349 18.2933718,14.432452 18.2933718,14.9127789 L18.2933718,19.8198783 L19.1556196,19.8198783 Z" id="R" fill="#FFFFFF"></path>
                        </g>
                    </g>
                </g>
            </g>
        </g>
    </g>
</svg>