<?xml version="1.0" encoding="UTF-8"?>
<svg width="136px" height="33px" viewBox="0 0 136 33" version="1.1" xmlns="http://www.w3.org/2000/svg" xmlns:xlink="http://www.w3.org/1999/xlink">
    <!-- Generator: Sketch 52.3 (67297) - http://www.bohemiancoding.com/sketch -->
    <title>Group</title>
    <desc>Created with Sketch.</desc>
    <g id="Page-1" stroke="none" stroke-width="1" fill="none" fill-rule="evenodd">
        <g id="Home" transform="translate(-744.000000, -361.000000)" fill="#EB5353">
            <g id="Store-Buttons" transform="translate(489.000000, 350.000000)">
                <g id="Google-Play" transform="translate(226.000000, 0.000000)">
                    <g id="Group" transform="translate(29.000000, 11.000000)">
                        <g id="Text" transform="translate(34.270078, 0.067846)">
                            <path d="M15.4253865,19.4592698 L8.54018748,19.4592698 L8.54018748,21.5053809 L13.4233181,21.5053809 C13.1819662,24.3748863 10.7983132,25.5985142 8.54837404,25.5985142 C5.66973745,25.5985142 3.15782837,23.3301185 3.15782837,20.1507205 C3.15782837,17.0536164 5.55239677,14.6683087 8.55458976,14.6683087 C10.8710826,14.6683087 12.2359639,16.1471691 12.2359639,16.1471691 L13.6666408,14.6634501 C13.6666408,14.6634501 11.830426,12.6162761 8.48151714,12.6162761 C4.2172297,12.6161243 0.918198166,16.2208085 0.918198166,20.1142804 C0.918198166,23.9294062 4.0213587,27.6494841 8.59021645,27.6494841 C12.6084523,27.6493322 15.5498525,24.8926393 15.5498525,20.8157522 C15.5498525,19.9556142 15.4252349,19.4586625 15.4252349,19.4586625 L15.4253865,19.4592698" id="layer"></path>
                            <path d="M21.2783211,17.9773727 C18.4528972,17.9773727 16.4282399,20.1892863 16.4282399,22.7695484 C16.4282399,25.3874654 18.3919528,27.6408295 21.311219,27.6408295 C23.9539614,27.6408295 26.1190029,25.6176453 26.1190029,22.8257269 C26.1190029,19.6253759 23.6005749,17.9773727 21.2783211,17.9773727 L21.2783211,17.9773727 Z M21.3062161,19.8751423 C22.695657,19.8751423 24.0121769,21.0000783 24.0121769,22.8128211 C24.0121769,24.586998 22.7011147,25.7441228 21.2998488,25.7441228 C19.7601693,25.7441228 18.545375,24.5091073 18.545375,22.7988524 C18.545375,21.1250375 19.7451606,19.8751423 21.3062161,19.8751423 L21.3062161,19.8751423 Z" id="layer"></path>
                            <path d="M31.9407074,17.9773727 C29.115435,17.9773727 27.0906262,20.1892863 27.0906262,22.7695484 C27.0906262,25.3874654 29.0544906,27.6408295 31.9739084,27.6408295 C34.6164992,27.6408295 36.7815408,25.6176453 36.7815408,22.8257269 C36.7815408,19.6253759 34.2632644,17.9773727 31.9407074,17.9773727 L31.9407074,17.9773727 Z M31.9687539,19.8751423 C33.3580432,19.8751423 34.6747147,21.0000783 34.6747147,22.8128211 C34.6747147,24.586998 33.3636525,25.7441228 31.962235,25.7441228 C30.4227071,25.7441228 29.2080644,24.5091073 29.2080644,22.7988524 C29.2080644,21.1250375 30.4075469,19.8751423 31.9687539,19.8751423 L31.9687539,19.8751423 Z" id="layer"></path>
                            <path d="M42.3844822,17.9823832 C39.7914655,17.9823832 37.7528608,20.257156 37.7528608,22.8102399 C37.7528608,25.7184629 40.1160474,27.6472065 42.3397593,27.6472065 C43.7149495,27.6472065 44.4459789,27.1004533 44.9856854,26.4730764 L44.9856854,27.425833 C44.9856854,29.0928153 43.9751002,30.0909702 42.4496714,30.0909702 C40.9760909,30.0909702 40.2368749,28.9936679 39.9800596,28.370846 L38.125804,29.1471718 C38.7837608,30.5402462 40.1078608,31.9928393 42.4649833,31.9928393 C45.0434461,31.9928393 47.0085234,30.3663966 47.0085234,26.9551485 L47.0085234,18.2728411 L44.985837,18.2728411 L44.985837,19.0913767 C44.3639617,18.4201198 43.5134692,17.9825351 42.3844822,17.9825351 L42.3844822,17.9823832 L42.3844822,17.9823832 Z M42.5721666,19.8765088 C43.8436604,19.8765088 45.1492649,20.9637901 45.1492649,22.8204127 C45.1492649,24.7077058 43.8463893,25.7479186 42.5441201,25.7479186 C41.1618045,25.7479186 39.8753019,24.6235899 39.8753019,22.838481 C39.8753019,20.9835285 41.2113786,19.8765088 42.5721666,19.8765088 L42.5721666,19.8765088 Z" id="layer"></path>
                            <path d="M56.4273107,17.9708439 C53.9811973,17.9708439 51.9274323,19.9200851 51.9274323,22.7961193 C51.9274323,25.8394743 54.2166367,27.6444735 56.6622953,27.6444735 C58.7034772,27.6444735 59.9561723,26.5262182 60.703878,25.5239639 L59.0362457,24.4126929 C58.6034193,25.0853163 57.8798185,25.7429081 56.6724527,25.7429081 C55.3163644,25.7427563 54.6926699,24.9989229 54.306234,24.2784719 L60.775283,21.5901042 L60.4393309,20.802239 C59.8144235,19.2594566 58.3567613,17.9711476 56.4274623,17.9711476 L56.4273107,17.9708439 L56.4273107,17.9708439 Z M56.5117535,19.8291367 C57.393173,19.8291367 58.0274797,20.2984547 58.2968781,20.8611505 L53.9768008,22.66949 C53.7906324,21.2695832 55.1150357,19.8291367 56.5116019,19.8291367 L56.5117535,19.8291367 L56.5117535,19.8291367 Z" id="layer"></path>
                            <polygon id="layer" points="48.6306748 27.3575078 50.7555416 27.3575078 50.7555416 13.1159608 48.6306748 13.1159608"></polygon>
                            <polygon id="layer" points="77.1195957 27.3575078 79.2444625 27.3575078 79.2444625 13.1159608 77.1195957 13.1159608"></polygon>
                            <polygon id="layer" points="65.8515557 27.3575078 67.9764225 27.3575078 67.9764225 13.1159608 65.8515557 13.1159608"></polygon>
                            <path d="M67.9764225,15.2440622 L67.9764225,20.0615941 L70.9915018,20.0615941 C72.3102957,20.0615941 73.396834,18.9735537 73.396834,17.6527523 C73.396834,16.3321026 72.3102957,15.2440622 70.9915018,15.2440622 L67.9764225,15.2440622 L67.9764225,15.2440622 Z M65.8515557,13.115809 L70.9915018,13.115809 C73.483096,13.115809 75.5215491,15.157517 75.5215491,17.6527523 C75.5215491,20.1481394 73.483096,22.1895437 70.9915018,22.1895437 L65.8515557,22.1895437 L65.8515557,13.115809 L65.8515557,13.115809 Z" id="layer"></path>
                            <polyline id="layer" points="94.9326377 31.9928393 101.08514 17.9711476 98.7642504 17.9711476 92.6118999 31.9928393 94.9326377 31.9928393"></polyline>
                            <polyline id="layer" points="95.619399 28.7833782 90.8752883 17.9711476 93.1960261 17.9711476 96.4682239 25.4283086 95.619399 25.4283086 95.619399 28.7833782"></polyline>
                            <path d="M87.9408618,23.2408403 C87.6690378,24.4251433 86.7522948,25.2769304 85.5893486,25.5942629 C83.1323198,26.2650642 82.5210568,22.266827 86.1724135,22.8166169 C86.7992917,22.8923819 87.3462751,23.0480115 87.9408618,23.2408403 L87.9408618,23.2408403 Z M87.9408618,27.3575078 L90.0657286,27.3575078 L90.0657286,22.2355493 C90.3981938,16.9527988 83.7108366,15.7101917 81.180432,19.5184849 L82.8903615,20.6677143 C84.1275931,18.5011991 87.6581223,18.9996691 87.8902264,21.3213585 C86.8291575,21.0400106 85.6828877,20.8357943 84.6356146,20.941926 C83.0008801,21.1075766 81.6012818,22.1474857 81.3788803,23.8504527 C81.2586591,24.7704131 81.4637779,25.9050665 82.1052099,26.5963654 C83.1048797,27.6731701 84.7461331,27.818475 86.0944896,27.4505819 C86.8535655,27.243177 87.4511843,26.7916236 87.9408618,26.2081266 L87.9408618,27.3575078 L87.9408618,27.3575078 Z" id="layer"></path>
                            <path d="M9.36651299,3.16525329 L6.13597582,3.16525329 L6.13597582,4.07031937 L8.42726885,4.07031937 C8.31394684,5.33959597 7.19557575,5.88074668 6.13988347,5.88074668 C4.78924133,5.88074668 3.61053604,4.87739689 3.61053604,3.47117241 C3.61053604,2.10125093 4.73406523,1.04610296 6.14269698,1.04610296 C7.22980682,1.04610296 7.87019345,1.7002947 7.87019345,1.7002947 L8.5413724,1.04403694 C8.5413724,1.04403694 7.67981246,0.138528139 6.10846592,0.138528139 C4.10758986,0.138380565 2.55984556,1.73290837 2.55984556,3.45493937 C2.55984556,5.14243825 4.0158381,6.78787879 6.15942175,6.78787879 C8.04494381,6.78787879 9.42512783,5.56848191 9.42512783,3.76528569 C9.42512783,3.38484212 9.36651299,3.16495814 9.36651299,3.16495814 L9.36651299,3.16525329" id="layer"></path>
                            <polygon id="layer" points="23.1556924 6.78787879 24.2999061 6.78787879 24.2999061 0.138528139 23.1556924 0.138528139"></polygon>
                            <path d="M16.9002749,6.78787879 L17.9689727,6.78787879 L17.9689727,1.13205197 L19.7230512,1.13205197 L19.7230512,0.138528139 L15.1461964,0.138528139 L15.1461964,1.13205197 L16.9002749,1.13205197 L16.9002749,6.78787879" id="layer"></path>
                            <path d="M10.5693415,6.78787879 L14.0019827,6.78787879 L14.0019827,5.79435495 L11.4644776,5.79435495 L11.4644776,3.96012115 L13.6964942,3.96012115 L13.6964942,2.96644155 L11.4644776,2.96644155 L11.4644776,1.13205197 L14.0019827,1.13205197 L14.0019827,0.138528139 L10.5693415,0.138528139 L10.5693415,6.78787879" id="layer"></path>
                            <path d="M27.1982625,6.78787879 L28.2668319,6.78787879 L28.2668319,1.13205197 L30.0209746,1.13205197 L30.0209746,0.138528139 L25.4441198,0.138528139 L25.4441198,1.13205197 L27.1982625,1.13205197 L27.1982625,6.78787879" id="layer"></path>
                            <path d="M35.7420432,0.138528139 C33.8066468,0.138380552 32.3094021,1.73290234 32.3094021,3.45523381 C32.3094021,5.12945216 33.6955214,6.7620512 35.7420432,6.78787879 C37.788565,6.7620512 39.1746843,5.12945216 39.1746843,3.45523381 C39.1746843,1.73290234 37.6774396,0.138380552 35.7420432,0.138528139 L35.7420432,0.138528139 Z M35.7420432,5.88096132 C34.4483016,5.86546476 33.3258594,4.86689623 33.3258594,3.47146829 C33.3258594,2.11249416 34.3950823,1.06359872 35.7420432,1.0466263 C37.0891553,1.06359872 38.158227,2.11249416 38.158227,3.47146829 C38.158227,4.86689623 37.0357848,5.86546476 35.7420432,5.88096132 L35.7420432,5.88096132 Z" id="layer"></path>
                            <polyline id="layer" points="40.318898 6.78787879 41.1974151 6.78787879 41.1974151 1.94441115 44.0187508 6.78787879 44.8957529 6.78787879 44.8957529 0.138528139 44.0172358 0.138528139 44.0172358 4.9795034 41.1974151 0.138528139 40.318898 0.138528139 40.318898 6.78787879"></polyline>
                        </g>
                        <path d="M0.566994744,2.14257916 L12.115855,14.0175749 L0.622441067,25.9962045 C0.287038886,25.7772201 0.107238959,25.3017912 0.104194218,24.6877437 C0.0984252368,23.5108055 0.00692277834,4.82881012 3.20502928e-05,3.42711177 C-0.0031729395,2.75481143 0.234316804,2.3445663 0.566994744,2.14257916 L0.566994744,2.14257916 Z M15.9241841,10.0486265 L1.88072006,2.15875133 C1.73072654,2.07425998 1.56038133,2.02293808 1.39067712,2 L12.5935587,13.519703 L15.9241841,10.0486265 L15.9241841,10.0486265 Z M16.5486763,17.5863444 L13.0746276,14.0142744 L16.5451508,10.3974834 L21.3244316,13.0820642 C22.5017846,13.743143 21.899567,14.5702341 21.3244316,14.8945027 L16.5486763,17.5863444 L16.5486763,17.5863444 Z M1.57448328,26 C1.67239572,25.9620449 1.7746349,25.9136934 1.88072006,25.8539554 L15.9270686,17.9365215 L12.5969239,14.5123113 L1.57448328,26 L1.57448328,26 Z" id="layer"></path>
                    </g>
                </g>
            </g>
        </g>
    </g>
</svg>