<svg xmlns="http://www.w3.org/2000/svg" xmlns:xlink="http://www.w3.org/1999/xlink" width="20" height="20" viewBox="0 0 20 20"><defs><path id="knn8a" d="M436.12 5771c-.94 0-1.73.8-1.73 1.76v4.9h6.53c.98-.72 2.02-1.34 3.28-1.34a5.6 5.6 0 0 1 3.27 1.34H454v-4.9c0-.96-.79-1.76-1.73-1.76zm16.57 4.64c0 .38-.3.7-.67.7h-2.57a.7.7 0 0 1-.69-.7v-2.62c0-.38.32-.68.7-.68h2.56c.37 0 .67.3.67.68zm-8.5 2.7a3.3 3.3 0 0 0-3.27 3.32 3.31 3.31 0 0 0 3.28 3.34c1.8 0 3.27-1.5 3.27-3.34a3.3 3.3 0 0 0-3.27-3.32zm5 2a5.22 5.22 0 0 1-5 6.52 5.22 5.22 0 0 1-5-6.52h-4.8v8.9c0 .96.79 1.76 1.73 1.76h16.15c.94 0 1.73-.8 1.73-1.76v-8.9z"/></defs><g><g transform="translate(-434 -5771)"><use fill="#adb1b4" xlink:href="#knn8a"/></g></g></svg>