<svg xmlns="http://www.w3.org/2000/svg" xmlns:xlink="http://www.w3.org/1999/xlink" width="18" height="18" viewBox="0 0 18 18"><defs><path id="8uc6a" d="M1512.13 1895.04l7.62-7.64a.8.8 0 0 0 0-1.15.79.79 0 0 0-1.14 0l-7.62 7.64-7.62-7.64a.79.79 0 0 0-1.15 0 .8.8 0 0 0 0 1.15l7.62 7.64-7.62 7.64a.8.8 0 0 0 0 1.16c.16.16.5.16.66.16.16 0 .49 0 .49-.16l7.62-7.65 7.62 7.65c.16.16.49.16.65.16.17 0 .5 0 .5-.16a.8.8 0 0 0 0-1.16z"/></defs><g><g transform="translate(-1502 -1886)"><use fill="#979797" xlink:href="#8uc6a"/></g></g></svg>