<?xml version="1.0" encoding="UTF-8"?>
<svg width="133px" height="33px" viewBox="0 0 133 33" version="1.1" xmlns="http://www.w3.org/2000/svg" xmlns:xlink="http://www.w3.org/1999/xlink">
    <!-- Generator: Sketch 52.3 (67297) - http://www.bohemiancoding.com/sketch -->
    <title>Group</title>
    <desc>Created with Sketch.</desc>
    <g id="Page-1" stroke="none" stroke-width="1" fill="none" fill-rule="evenodd">
        <g id="Home" transform="translate(-520.000000, -359.000000)" fill="#EB5353">
            <g id="Store-Buttons" transform="translate(489.000000, 350.000000)">
                <g id="App-Store">
                    <g id="Group" transform="translate(31.000000, 9.000000)">
                        <g id="Text" transform="translate(37.000000, 0.000000)">
                            <path d="M13.7584728,28.575795 L11.0548189,28.575795 L9.57382135,24.2084258 L4.42604533,24.2084258 L3.01528802,28.575795 L0.383064902,28.575795 L5.48322042,13.7072995 L8.63331648,13.7072995 L13.7584728,28.575795 L13.7584728,28.575795 Z M9.12737916,22.3761195 L7.78805261,18.4936412 C7.64638162,18.0970139 7.38089733,17.1629846 6.98921872,15.6926705 L6.94159822,15.6926705 C6.78564109,16.3250396 6.53444295,17.2590689 6.18919433,18.4936412 L4.87367802,22.3761195 L9.12737916,22.3761195 L9.12737916,22.3761195 Z" id="layer"></path>
                            <path d="M26.8743489,23.083345 C26.8743489,24.9067133 26.3493329,26.3479786 25.2993009,27.4060238 C24.358796,28.3478739 23.1909032,28.8182404 21.7968131,28.8182404 C20.2920053,28.8182404 19.21102,28.3110044 18.5526666,27.2965323 L18.5050461,27.2965323 L18.5050461,32.9442814 L15.9668734,32.9442814 L15.9668734,21.3839926 C15.9668734,20.2376839 15.9347296,19.0612092 15.8728229,17.8545685 L18.1050339,17.8545685 L18.2467049,19.5539208 L18.2943254,19.5539208 C19.1407797,18.2735409 20.4253427,17.6344683 22.1492048,17.6344683 C23.4968649,17.6344683 24.6218993,18.1338834 25.5219267,19.1338311 C26.4243352,20.134896 26.8743489,21.4510282 26.8743489,23.083345 L26.8743489,23.083345 Z M24.2885558,23.1704913 C24.2885558,22.1269705 24.0385481,21.2666804 23.5361519,20.5896208 C22.9873256,19.8835125 22.2503984,19.5304584 21.3265607,19.5304584 C20.7003511,19.5304584 20.1312861,19.7270961 19.6229373,20.1147853 C19.1133979,20.5058263 18.7800545,21.0164141 18.6240973,21.6487833 C18.5455235,21.9437399 18.5062366,22.185068 18.5062366,22.3750022 L18.5062366,24.1626181 C18.5062366,24.9424656 18.7610063,25.6005317 19.2705456,26.1379337 C19.7800849,26.6753358 20.4420099,26.9434782 21.2563204,26.9434782 C22.212302,26.9434782 22.9563723,26.5971276 23.4885314,25.9066609 C24.021881,25.215077 24.2885558,24.3033929 24.2885558,23.1704913 L24.2885558,23.1704913 Z" id="layer"></path>
                            <path d="M40.0140353,23.083345 C40.0140353,24.9067133 39.4890193,26.3479786 38.4377967,27.4060238 C37.4984824,28.3478739 36.3305896,28.8182404 34.9364995,28.8182404 C33.4316917,28.8182404 32.3507064,28.3110044 31.6935435,27.2965323 L31.645923,27.2965323 L31.645923,32.9442814 L29.1077503,32.9442814 L29.1077503,21.3839926 C29.1077503,20.2376839 29.0756065,19.0612092 29.0136998,17.8545685 L31.2459108,17.8545685 L31.3875817,19.5539208 L31.4352022,19.5539208 C32.2804661,18.2735409 33.5650291,17.6344683 35.2900817,17.6344683 C36.6365513,17.6344683 37.7615856,18.1338834 38.6639941,19.1338311 C39.562831,20.134896 40.0140353,21.4510282 40.0140353,23.083345 L40.0140353,23.083345 Z M37.4282421,23.1704913 C37.4282421,22.1269705 37.177044,21.2666804 36.6746477,20.5896208 C36.1258215,19.8835125 35.3912753,19.5304584 34.4662471,19.5304584 C33.838847,19.5304584 33.2709725,19.7270961 32.7614332,20.1147853 C32.2518938,20.5058263 31.9197408,21.0164141 31.7637837,21.6487833 C31.6864004,21.9437399 31.645923,22.185068 31.645923,22.3750022 L31.645923,24.1626181 C31.645923,24.9424656 31.9006926,25.6005317 32.407851,26.1379337 C32.9173903,26.6742185 33.5793152,26.9434782 34.3960068,26.9434782 C35.3519883,26.9434782 36.0960587,26.5971276 36.6282177,25.9066609 C37.1615673,25.215077 37.4282421,24.3033929 37.4282421,23.1704913 L37.4282421,23.1704913 Z" id="layer"></path>
                            <path d="M54.7049594,24.4061808 C54.7049594,25.6709191 54.237088,26.6999155 53.2977737,27.4942873 C52.2655993,28.3623983 50.8286508,28.7958952 48.9821659,28.7958952 C47.277352,28.7958952 45.9106436,28.4875314 44.8760883,27.8696867 L45.4642015,25.8843157 C46.5785212,26.5166849 47.8011775,26.8339867 49.133361,26.8339867 C50.0893425,26.8339867 50.8334128,26.6306454 51.3679529,26.2261973 C51.900112,25.8217492 52.1655963,25.2787608 52.1655963,24.6017013 C52.1655963,23.9983809 51.946542,23.4900277 51.5072429,23.0777587 C51.0703248,22.6654898 50.3405406,22.2822697 49.3214619,21.9280982 C46.5475678,20.9571993 45.1618113,19.5349274 45.1618113,17.6646343 C45.1618113,16.4423519 45.6475404,15.4401697 46.6201891,14.6603223 C47.5892663,13.8793576 48.8821628,13.4894338 50.4988788,13.4894338 C51.9405894,13.4894338 53.138245,13.7251757 54.0942265,14.1955421 L53.4596834,16.1373399 C52.566799,15.6814979 51.5572444,15.4535768 50.427448,15.4535768 C49.5345637,15.4535768 48.8369234,15.6602699 48.3369081,16.0714216 C47.9142762,16.4390001 47.7023649,16.8870213 47.7023649,17.4177198 C47.7023649,18.0053986 47.944039,18.4914066 48.4297681,18.8735095 C48.8524,19.2265637 49.6202806,19.6086666 50.7346003,20.0209355 C52.0977371,20.5359923 53.0989581,21.1381955 53.7430253,21.8286621 C54.3847116,22.5168942 54.7049594,23.3783017 54.7049594,24.4061808 L54.7049594,24.4061808 Z" id="layer"></path>
                            <path d="M63.096882,19.6421844 L60.2991776,19.6421844 L60.2991776,24.8474985 C60.2991776,26.1714515 60.7920498,26.8328694 61.7801752,26.8328694 C62.2337604,26.8328694 62.6099624,26.7959999 62.9075905,26.7222607 L62.9778307,28.5311046 C62.4778155,28.7065144 61.8194621,28.7947779 61.003961,28.7947779 C60.0015495,28.7947779 59.2181923,28.5076421 58.6526989,27.9344877 C58.0895864,27.3602161 57.8062445,26.3971381 57.8062445,25.0441363 L57.8062445,19.6399499 L56.139527,19.6399499 L56.139527,17.8523339 L57.8062445,17.8523339 L57.8062445,15.8893082 L60.2991776,15.1831999 L60.2991776,17.8523339 L63.096882,17.8523339 L63.096882,19.6421844 L63.096882,19.6421844 Z" id="layer"></path>
                            <path d="M75.7198859,23.1269182 C75.7198859,24.7748766 75.2174897,26.1278784 74.2150782,27.1859236 C73.1638556,28.275252 71.768575,28.8182404 70.0292362,28.8182404 C68.3529946,28.8182404 67.0184301,28.29648 66.0231617,27.2529592 C65.0278933,26.2094384 64.530259,24.8921889 64.530259,23.3045625 C64.530259,21.643197 65.0421794,20.2823743 66.0695917,19.2243292 C67.0946229,18.1651667 68.4779985,17.6355855 70.2173372,17.6355855 C71.8935788,17.6355855 73.2424295,18.1573459 74.2603176,19.201984 C75.2341569,20.2153387 75.7198859,21.5236501 75.7198859,23.1269182 L75.7198859,23.1269182 Z M73.0864723,23.2040091 C73.0864723,22.2152341 72.8614655,21.3672337 72.4054992,20.6600082 C71.8733401,19.8041871 71.1126026,19.3773938 70.1268583,19.3773938 C69.1065891,19.3773938 68.3315654,19.8053043 67.7994063,20.6600082 C67.3434401,21.368351 67.1184332,22.2297584 67.1184332,23.2486995 C67.1184332,24.2374746 67.3434401,25.0854749 67.7994063,25.7915832 C68.3482326,26.6474043 69.1149226,27.0741976 70.1042385,27.0741976 C71.0733157,27.0741976 71.8340532,26.6384662 72.3828794,25.769238 C72.8507508,25.0486053 73.0864723,24.1916669 73.0864723,23.2040091 L73.0864723,23.2040091 Z" id="layer"></path>
                            <path d="M83.9701375,19.9494309 C83.7189394,19.9058577 83.4510741,19.8835125 83.1701131,19.8835125 C82.2772288,19.8835125 81.5867315,20.1996971 81.1010024,20.8331835 C80.6783705,21.3918135 80.4664593,22.0979218 80.4664593,22.9503911 L80.4664593,28.575795 L77.9294771,28.575795 L77.9532874,21.230928 C77.9532874,19.9952385 77.9211435,18.8701578 77.8580464,17.8556857 L80.0688281,17.8556857 L80.1616881,19.906975 L80.2319283,19.906975 C80.4997936,19.201984 80.9224255,18.6344159 81.5010146,18.2087399 C82.066508,17.8255197 82.677241,17.6344683 83.3355944,17.6344683 C83.5701253,17.6344683 83.7820366,17.6501099 83.9701375,17.6780414 L83.9701375,19.9494309 L83.9701375,19.9494309 Z" id="layer"></path>
                            <path d="M95.3216741,22.7079457 C95.3216741,23.134739 95.2919113,23.4944967 95.2288142,23.7883361 L87.6142963,23.7883361 C87.6440591,24.8474985 88.0119274,25.657512 88.7190919,26.2161419 C89.3607781,26.7155571 90.1905653,26.9658234 91.209644,26.9658234 C92.3370593,26.9658234 93.3656621,26.7971171 94.2906903,26.4585874 L94.6883215,28.1121321 C93.6073362,28.554567 92.3311068,28.7746672 90.8584428,28.7746672 C89.0869602,28.7746672 87.6964416,28.2853074 86.684506,27.3077049 C85.6749514,26.3301025 85.1689836,25.017322 85.1689836,23.3704808 C85.1689836,21.7538057 85.639236,20.4075075 86.5809314,19.3338206 C87.5666758,18.1875119 88.8988592,17.6143576 90.5751008,17.6143576 C92.2215796,17.6143576 93.4680462,18.1875119 94.3145006,19.3338206 C94.9847591,20.2443875 95.3216741,21.3705855 95.3216741,22.7079457 L95.3216741,22.7079457 Z M92.9013622,22.0901009 C92.9180294,21.3839926 92.7525482,20.7739687 92.4084901,20.2589119 C91.969191,19.5963767 91.2941704,19.2656678 90.3858093,19.2656678 C89.5560221,19.2656678 88.8810016,19.5885559 88.3655096,20.2365667 C87.9428777,20.7516235 87.6916796,21.3694683 87.6142963,22.0889837 L92.9013622,22.0889837 L92.9013622,22.0901009 Z" id="layer"></path>
                            <path d="M8.28806785,4.56029229 C8.28806785,5.87530726 7.86781694,6.86519957 7.02850564,7.52996925 C6.25110098,8.14334496 5.14630539,8.45059145 3.71530937,8.45059145 C3.00576392,8.45059145 2.39860255,8.42154269 1.89025372,8.36344517 L1.89025372,1.17834642 C2.55336918,1.07779302 3.26767667,1.02639907 4.03912877,1.02639907 C5.40226557,1.02639907 6.42967785,1.30459679 7.12255612,1.86099225 C7.89877027,2.4900096 8.28806785,3.38940386 8.28806785,4.56029229 L8.28806785,4.56029229 Z M6.97255155,4.59269283 C6.97255155,3.74022349 6.73206803,3.08662642 6.25110098,2.63078436 C5.77013393,2.17605956 5.06773156,1.94813853 4.14270335,1.94813853 C3.74983423,1.94813853 3.41530022,1.97271825 3.13791081,2.0241122 L3.13791081,7.48639611 C3.29148692,7.50874131 3.57244787,7.51879665 3.98079365,7.51879665 C4.93558467,7.51879665 5.67251191,7.26964768 6.19157535,6.77134974 C6.7106388,6.2730518 6.97255155,5.54683283 6.97255155,4.59269283 L6.97255155,4.59269283 Z" id="layer"></path>
                            <path d="M15.2632805,5.70883552 C15.2632805,6.51884899 15.0168445,7.1825014 14.5239723,7.70314454 C14.0072899,8.23831206 13.3227452,8.50533718 12.4679572,8.50533718 C11.6441226,8.50533718 10.9881502,8.24948465 10.4988496,7.73554508 C10.0107394,7.22272276 9.76668437,6.57582925 9.76668437,5.7959818 C9.76668437,4.98038204 10.0178825,4.31114332 10.5226598,3.79161745 C11.0274371,3.27209157 11.7060292,3.01177 12.5608172,3.01177 C13.3846518,3.01177 14.0465768,3.26762253 14.5477825,3.78044485 C15.0239875,4.27874279 15.2632805,4.92228452 15.2632805,5.70883552 L15.2632805,5.70883552 Z M13.9691935,5.74682236 C13.9691935,5.26081428 13.8572853,4.84407632 13.6346595,4.49660848 C13.3727467,4.07651873 13.0001163,3.86647386 12.5155777,3.86647386 C12.014372,3.86647386 11.633408,4.07651873 11.3714952,4.49660848 C11.1476789,4.84407632 11.0369612,5.26751784 11.0369612,5.7680503 C11.0369612,6.25405838 11.1488694,6.67079634 11.3714952,7.01826419 C11.6417415,7.43835393 12.0179435,7.6483988 12.5036726,7.6483988 C12.9798776,7.6483988 13.3536985,7.43500215 13.6227543,7.00709159 C13.8537138,6.65292018 13.9691935,6.23283044 13.9691935,5.74682236 L13.9691935,5.74682236 Z" id="layer"></path>
                            <path d="M22.8599408,8.38579037 L21.7170488,8.38579037 L20.9896456,6.09875925 C20.8051162,5.52783941 20.6551116,4.96027136 20.5384414,4.39717234 L20.5158217,4.39717234 C20.407485,4.975913 20.2574805,5.54236379 20.0646174,6.09875925 L19.2919748,8.38579037 L18.1359872,8.38579037 L16.4847464,3.11902696 L17.7669283,3.11902696 L18.4014715,5.62280651 C18.5550476,6.21495428 18.6812419,6.77917056 18.7824355,7.31322082 L18.8050552,7.31322082 C18.8979152,6.87302039 19.0514913,6.3121559 19.2681646,5.63397911 L20.0646174,3.12014422 L21.0813151,3.12014422 L21.8444336,5.58035063 C22.028963,6.18031922 22.1789676,6.75794262 22.2944473,7.31433808 L22.3289722,7.31433808 C22.4134986,6.772467 22.5408834,6.1948436 22.7099362,5.58035063 L23.3909093,3.12014422 L24.6159467,3.12014422 L22.8599408,8.38579037 Z" id="layer"></path>
                            <path d="M31.0840011,8.38579037 L29.836344,8.38579037 L29.836344,5.3691885 C29.836344,4.43962822 29.460142,3.97484808 28.7053571,3.97484808 C28.3351077,3.97484808 28.0362891,4.10221571 27.8041391,4.35806824 C27.5743702,4.61392077 27.4577,4.91558096 27.4577,5.26081428 L27.4577,8.38467311 L26.2100429,8.38467311 L26.2100429,4.62397611 C26.2100429,4.16143049 26.1945663,3.65978077 26.1648034,3.11679244 L27.2612654,3.11679244 L27.3196006,3.94021302 L27.3541254,3.94021302 C27.4993679,3.68436049 27.7160412,3.47319836 28.0005737,3.30449211 C28.3386793,3.10785436 28.7172622,3.00841822 29.1315606,3.00841822 C29.6553861,3.00841822 30.0911136,3.16706913 30.4375528,3.48548822 C30.8685183,3.87541194 31.0840011,4.45750438 31.0840011,5.23064826 L31.0840011,8.38579037 L31.0840011,8.38579037 Z" id="layer"></path>
                            <polygon id="layer" points="34.5245822 8.38579037 33.2781156 8.38579037 33.2781156 0.70239368 34.5245822 0.70239368"></polygon>
                            <path d="M41.8700442,5.70883552 C41.8700442,6.51884899 41.6236082,7.1825014 41.130736,7.70314454 C40.6140536,8.23831206 39.9283184,8.50533718 39.0747209,8.50533718 C38.2496958,8.50533718 37.5937234,8.24948465 37.1056133,7.73554508 C36.6175031,7.22272276 36.3734481,6.57582925 36.3734481,5.7959818 C36.3734481,4.98038204 36.6246462,4.31114332 37.1294235,3.79161745 C37.6342008,3.27209157 38.3127929,3.01177 39.1663904,3.01177 C39.9914155,3.01177 40.65215,3.26762253 41.1545462,3.78044485 C41.6307512,4.27874279 41.8700442,4.92228452 41.8700442,5.70883552 L41.8700442,5.70883552 Z M40.5747667,5.74682236 C40.5747667,5.26081428 40.4628585,4.84407632 40.2402326,4.49660848 C39.9795104,4.07651873 39.6056895,3.86647386 39.1223414,3.86647386 C38.6199451,3.86647386 38.2389811,4.07651873 37.9782589,4.49660848 C37.7544426,4.84407632 37.6437249,5.26751784 37.6437249,5.7680503 C37.6437249,6.25405838 37.7556331,6.67079634 37.9782589,7.01826419 C38.2485052,7.43835393 38.6247072,7.6483988 39.1104363,7.6483988 C39.5866413,7.6483988 39.9592717,7.43500215 40.2283275,7.00709159 C40.4604775,6.65292018 40.5747667,6.23283044 40.5747667,5.74682236 L40.5747667,5.74682236 Z" id="layer"></path>
                            <path d="M47.9083236,8.38579037 L46.7880514,8.38579037 L46.6951914,7.77911822 L46.6606665,7.77911822 C46.2773215,8.26289177 45.7308763,8.50533718 45.0213308,8.50533718 C44.4915528,8.50533718 44.0629683,8.34556901 43.7403394,8.02826718 C43.4474733,7.74001412 43.3010403,7.38137367 43.3010403,6.95569763 C43.3010403,6.3121559 43.5867633,5.82167878 44.1617808,5.48203175 C44.7356078,5.14238473 45.5427753,4.975913 46.5820927,4.98373382 L46.5820927,4.88541494 C46.5820927,4.19159651 46.1939856,3.84524592 45.416581,3.84524592 C44.8629927,3.84524592 44.3748825,3.97596534 43.9534411,4.23516965 L43.6998619,3.4664948 C44.2213064,3.16371735 44.8653737,3.01177 45.6249206,3.01177 C47.091632,3.01177 47.8273688,3.73798897 47.8273688,5.19042691 L47.8273688,7.12999018 C47.8273688,7.65621962 47.8547505,8.0751921 47.9083236,8.38579037 L47.9083236,8.38579037 Z M46.613046,6.57582925 L46.613046,5.76358126 C45.2368136,5.74123606 44.5486974,6.09540747 44.5486974,6.82497822 C44.5486974,7.09982416 44.6272712,7.3054 44.7879904,7.44282297 C44.9487096,7.58024594 45.1534777,7.6483988 45.3975328,7.6483988 C45.6713506,7.6483988 45.9273108,7.56683882 46.1606513,7.40483613 C46.3951822,7.24171618 46.5392342,7.03502309 46.5928073,6.78140508 C46.6059029,6.72442482 46.613046,6.6551547 46.613046,6.57582925 L46.613046,6.57582925 Z" id="layer"></path>
                            <path d="M54.9978255,8.38579037 L53.8906489,8.38579037 L53.8323138,7.54002459 L53.7977889,7.54002459 C53.4442067,8.18356632 52.8418074,8.50533718 51.995353,8.50533718 C51.3191419,8.50533718 50.7560295,8.25618821 50.3095873,7.75789028 C49.8631451,7.25959234 49.6405193,6.61269883 49.6405193,5.818327 C49.6405193,4.96585766 49.8821933,4.27539101 50.3679224,3.74804431 C50.8381749,3.25644993 51.4143829,3.01065274 52.1001181,3.01065274 C52.8537125,3.01065274 53.3811095,3.24862911 53.6811187,3.72569911 L53.7049289,3.72569911 L53.7049289,0.70239368 L54.9537765,0.70239368 L54.9537765,6.96687023 C54.9537765,7.47969255 54.9680627,7.95229351 54.9978255,8.38579037 L54.9978255,8.38579037 Z M53.7049289,6.16467758 L53.7049289,5.28651126 C53.7049289,5.13456391 53.6930238,5.01166531 53.6704041,4.91781548 C53.6001638,4.63626597 53.4489687,4.39940686 53.2191998,4.20835541 C52.9870499,4.01730396 52.7072795,3.9212196 52.3846506,3.9212196 C51.9191602,3.9212196 51.5548634,4.09439489 51.2869981,4.44186274 C51.0215138,4.78933058 50.8869859,5.23288278 50.8869859,5.77475386 C50.8869859,6.295397 51.0143707,6.71772126 51.2703309,7.04284391 C51.5405772,7.38919449 51.904874,7.56236978 52.3608403,7.56236978 C52.7703766,7.56236978 53.0977676,7.41824325 53.3465847,7.12887292 C53.5870682,6.86184779 53.7049289,6.54007693 53.7049289,6.16467758 L53.7049289,6.16467758 Z" id="layer"></path>
                            <path d="M65.668389,5.70883552 C65.668389,6.51884899 65.4219529,7.1825014 64.9290807,7.70314454 C64.4123983,8.23831206 63.7290441,8.50533718 62.8730656,8.50533718 C62.0504215,8.50533718 61.3944491,8.24948465 60.903958,7.73554508 C60.4158479,7.22272276 60.1717928,6.57582925 60.1717928,5.7959818 C60.1717928,4.98038204 60.4229909,4.31114332 60.9277682,3.79161745 C61.4325455,3.27209157 62.1111376,3.01177 62.9671161,3.01177 C63.7897603,3.01177 64.4528757,3.26762253 64.952891,3.78044485 C65.429096,4.27874279 65.668389,4.92228452 65.668389,5.70883552 L65.668389,5.70883552 Z M64.3754924,5.74682236 C64.3754924,5.26081428 64.2635842,4.84407632 64.0409584,4.49660848 C63.7778551,4.07651873 63.4064152,3.86647386 62.9206861,3.86647386 C62.4206709,3.86647386 62.0397069,4.07651873 61.7766036,4.49660848 C61.5527873,4.84407632 61.4420696,5.26751784 61.4420696,5.7680503 C61.4420696,6.25405838 61.5539778,6.67079634 61.7766036,7.01826419 C62.04685,7.43835393 62.4230519,7.6483988 62.908781,7.6483988 C63.384986,7.6483988 63.7599974,7.43500215 64.0290533,7.00709159 C64.2588222,6.65292018 64.3754924,6.23283044 64.3754924,5.74682236 L64.3754924,5.74682236 Z" id="layer"></path>
                            <path d="M72.3769269,8.38579037 L71.1304603,8.38579037 L71.1304603,5.3691885 C71.1304603,4.43962822 70.7542583,3.97484808 69.9982829,3.97484808 C69.6280335,3.97484808 69.3292149,4.10221571 69.0982555,4.35806824 C68.867296,4.61392077 68.7518163,4.91558096 68.7518163,5.26081428 L68.7518163,8.38467311 L67.5029687,8.38467311 L67.5029687,4.62397611 C67.5029687,4.16143049 67.4886826,3.65978077 67.4589198,3.11679244 L68.5541913,3.11679244 L68.6125264,3.94021302 L68.6470512,3.94021302 C68.7934843,3.68436049 69.0101575,3.47319836 69.2934995,3.30449211 C69.6327956,3.10785436 70.010188,3.00841822 70.4256769,3.00841822 C70.9483119,3.00841822 71.3840395,3.16706913 71.7304786,3.48548822 C72.1626346,3.87541194 72.3769269,4.45750438 72.3769269,5.23064826 L72.3769269,8.38579037 L72.3769269,8.38579037 Z" id="layer"></path>
                            <path d="M80.7736115,3.99607602 L79.3997601,3.99607602 L79.3997601,6.55460131 C79.3997601,7.2048466 79.6438151,7.52996925 80.1271632,7.52996925 C80.3509795,7.52996925 80.5366995,7.51209309 80.6831325,7.47522351 L80.7152764,8.36344517 C80.4688403,8.45059145 80.1450209,8.49416458 79.7461992,8.49416458 C79.253327,8.49416458 78.869982,8.35338983 78.5925926,8.07184032 C78.3140127,7.79029081 78.1759132,7.31657259 78.1759132,6.65180292 L78.1759132,3.99607602 L77.3556501,3.99607602 L77.3556501,3.11902696 L78.1759132,3.11902696 L78.1759132,2.15371436 L79.3985696,1.80736377 L79.3985696,3.1179097 L80.772421,3.1179097 L80.772421,3.99607602 L80.7736115,3.99607602 Z" id="layer"></path>
                            <path d="M87.3785748,8.38579037 L86.1297272,8.38579037 L86.1297272,5.3915337 C86.1297272,4.44744904 85.7535252,3.97484808 84.9999308,3.97484808 C84.4213418,3.97484808 84.0260916,4.24857677 83.8094183,4.79603414 C83.7725125,4.91111192 83.7510832,5.05188667 83.7510832,5.21724115 L83.7510832,8.38467311 L82.5046166,8.38467311 L82.5046166,0.70239368 L83.7510832,0.70239368 L83.7510832,3.8765292 L83.7748935,3.8765292 C84.1677626,3.29890581 84.730875,3.01065274 85.4606592,3.01065274 C85.9773416,3.01065274 86.4047356,3.16930365 86.7440316,3.48772274 C87.1666636,3.88435002 87.3785748,4.47426328 87.3785748,5.25411072 L87.3785748,8.38579037 L87.3785748,8.38579037 Z" id="layer"></path>
                            <path d="M94.1918778,5.50325969 C94.1918778,5.71330456 94.1752106,5.88983164 94.1454478,6.03395817 L90.403667,6.03395817 C90.4203342,6.55460131 90.5989111,6.95122859 90.9453502,7.22607454 C91.2620265,7.47187173 91.6703723,7.59477032 92.1703876,7.59477032 C92.7239759,7.59477032 93.2287532,7.51209309 93.683529,7.34562135 L93.878773,8.1589866 C93.3466139,8.37573503 92.7204043,8.48410924 91.9953822,8.48410924 C91.1263081,8.48410924 90.4417634,8.24389835 89.9465102,7.76347658 C89.448876,7.2830548 89.2024399,6.6383958 89.2024399,5.8294996 C89.2024399,5.03512777 89.4322088,4.37370988 89.8953182,3.84636318 C90.3786663,3.28326417 91.0322576,3.00171466 91.8572828,3.00171466 C92.6644503,3.00171466 93.2775642,3.28326417 93.6918625,3.84636318 C94.0263965,4.29326717 94.1918778,4.84631084 94.1918778,5.50325969 L94.1918778,5.50325969 Z M93.0013653,5.20048225 C93.0108894,4.8530144 92.928744,4.55358873 92.7596913,4.30108798 C92.543018,3.97596534 92.213246,3.81284539 91.7668038,3.81284539 C91.3596486,3.81284539 91.0274956,3.9714963 90.7739164,4.28991539 C90.5667672,4.54353339 90.4441445,4.84631084 90.403667,5.20048225 L93.0013653,5.20048225 L93.0013653,5.20048225 Z" id="layer"></path>
                        </g>
                        <g id="Icon" transform="translate(0.000000, 0.500000)">
                            <path d="M19.185213,16.5268458 C19.1531198,13.1211143 22.1056963,11.4642148 22.2407092,11.387076 C20.5685416,9.05917445 17.9767372,8.74110892 17.0659537,8.71574822 C14.8891479,8.49701212 12.7776351,9.95947953 11.668759,9.95947953 C10.5377495,9.95947953 8.83016874,8.73688214 6.98978842,8.77280981 C4.62152992,8.80768078 2.40599089,10.1169273 1.19087508,12.1500106 C-1.31682295,16.2954294 0.553437273,22.3872824 2.95600232,25.7380658 C4.15783818,27.3791148 5.56219334,29.2114259 7.40036034,29.1469674 C9.19868747,29.0761688 9.87043182,28.0522303 12.0405977,28.0522303 C14.1908436,28.0522303 14.8216414,29.1469674 16.6963283,29.1057563 C18.6263483,29.0761688 19.8414641,27.4573103 21.0012468,25.8014675 C22.3901087,23.9205485 22.9478667,22.0681602 22.97,21.9730576 C22.9246268,21.9582638 19.2217329,20.6088629 19.185213,16.5268458 L19.185213,16.5268458 Z" id="layer"></path>
                            <path d="M14.4289154,4.77067406 C15.444793,3.63215385 16.1398672,2.0832247 15.9469202,0.51137931 C14.476571,0.569711545 12.6377627,1.42282047 11.5788789,2.53634116 C10.6420398,3.51757267 9.80516119,5.1258757 10.0213548,6.63834721 C11.6730277,6.74876179 13.3688692,5.89148628 14.4289154,4.77067406 L14.4289154,4.77067406 Z" id="layer"></path>
                        </g>
                    </g>
                </g>
            </g>
        </g>
    </g>
</svg>